<?xml version="1.0" encoding="UTF-8" standalone="no"?>
<!-- Created with Inkscape (http://www.inkscape.org/) -->

<svg
   width="512"
   height="512"
   viewBox="0 0 512 512"
   version="1.1"
   id="svg1"
   xml:space="preserve"
   inkscape:version="1.3.1 (91b66b0783, 2023-11-16)"
   sodipodi:docname="icon.svg"
   inkscape:export-filename="icon-256.png"
   inkscape:export-xdpi="48"
   inkscape:export-ydpi="48"
   xmlns:inkscape="http://www.inkscape.org/namespaces/inkscape"
   xmlns:sodipodi="http://sodipodi.sourceforge.net/DTD/sodipodi-0.dtd"
   xmlns="http://www.w3.org/2000/svg"
   xmlns:svg="http://www.w3.org/2000/svg"><sodipodi:namedview
     id="namedview1"
     pagecolor="#ffffff"
     bordercolor="#666666"
     borderopacity="1.0"
     inkscape:showpageshadow="2"
     inkscape:pageopacity="0.0"
     inkscape:pagecheckerboard="0"
     inkscape:deskcolor="#d1d1d1"
     inkscape:document-units="px"
     inkscape:zoom="1.1338568"
     inkscape:cx="301.62539"
     inkscape:cy="282.66356"
     inkscape:window-width="1920"
     inkscape:window-height="1017"
     inkscape:window-x="3832"
     inkscape:window-y="-8"
     inkscape:window-maximized="1"
     inkscape:current-layer="layer1" /><defs
     id="defs1"><inkscape:path-effect
       effect="fillet_chamfer"
       id="path-effect3"
       is_visible="true"
       lpeversion="1"
       nodesatellites_param="F,0,0,1,0,16.625719,0,1 @ F,0,0,1,0,0,0,1 @ F,0,0,1,0,0,0,1 @ F,0,0,1,0,0,0,1"
       radius="0"
       unit="px"
       method="auto"
       mode="F"
       chamfer_steps="1"
       flexible="false"
       use_knot_distance="true"
       apply_no_radius="true"
       apply_with_radius="true"
       only_selected="false"
       hide_knots="false" /><inkscape:path-effect
       effect="fillet_chamfer"
       id="path-effect3-4"
       is_visible="true"
       lpeversion="1"
       nodesatellites_param="F,0,0,1,0,16.625719,0,1 @ F,0,0,1,0,0,0,1 @ F,0,0,1,0,0,0,1 @ F,0,0,1,0,0,0,1"
       radius="0"
       unit="px"
       method="auto"
       mode="F"
       chamfer_steps="1"
       flexible="false"
       use_knot_distance="true"
       apply_no_radius="true"
       apply_with_radius="true"
       only_selected="false"
       hide_knots="false" /><inkscape:path-effect
       effect="fillet_chamfer"
       id="path-effect3-4-1"
       is_visible="true"
       lpeversion="1"
       nodesatellites_param="F,0,0,1,0,16.625719,0,1 @ F,0,0,1,0,0,0,1 @ F,0,0,1,0,0,0,1 @ F,0,0,1,0,0,0,1"
       radius="0"
       unit="px"
       method="auto"
       mode="F"
       chamfer_steps="1"
       flexible="false"
       use_knot_distance="true"
       apply_no_radius="true"
       apply_with_radius="true"
       only_selected="false"
       hide_knots="false" /><inkscape:path-effect
       effect="fillet_chamfer"
       id="path-effect3-4-1-6"
       is_visible="true"
       lpeversion="1"
       nodesatellites_param="F,0,0,1,0,16.625719,0,1 @ F,0,0,1,0,0,0,1 @ F,0,0,1,0,0,0,1 @ F,0,0,1,0,0,0,1"
       radius="0"
       unit="px"
       method="auto"
       mode="F"
       chamfer_steps="1"
       flexible="false"
       use_knot_distance="true"
       apply_no_radius="true"
       apply_with_radius="true"
       only_selected="false"
       hide_knots="false" /></defs><g
     inkscape:label="Calque 1"
     inkscape:groupmode="layer"
     id="layer1"><path
       style="fill:#ffffff;fill-opacity:1;stroke-width:0.644;stroke-dasharray:none"
       id="rect1-5"
       width="351.46576"
       height="241.88191"
       x="120.56647"
       y="233.94539"
       inkscape:path-effect="#path-effect3-4"
       sodipodi:type="rect"
       d="M 137.19219,233.94539 H 472.03223 V 475.8273 H 120.56647 V 250.57111 a 16.625719,16.625719 135 0 1 16.62572,-16.62572 z"
       transform="matrix(1.007528,0,0,0.97083057,-132.14779,-152.30188)" /><path
       style="fill:#ffffff;fill-opacity:1;stroke-width:0.644;stroke-dasharray:none"
       id="rect1-5-3"
       width="351.46576"
       height="241.88191"
       x="120.56647"
       y="233.94539"
       inkscape:path-effect="#path-effect3-4-1"
       sodipodi:type="rect"
       d="M 137.19219,233.94539 H 472.03223 V 475.8273 H 120.56647 V 250.57111 a 16.625719,16.625719 135 0 1 16.62572,-16.62572 z"
       transform="matrix(0.88707988,0,0,1.1166779,-81.035349,-228.29028)" /><path
       style="fill:#ffffff;fill-opacity:1;stroke-width:0.644;stroke-dasharray:none"
       id="rect1-5-3-2"
       width="351.46576"
       height="241.88191"
       x="120.56647"
       y="233.94539"
       inkscape:path-effect="#path-effect3-4-1-6"
       sodipodi:type="rect"
       d="M 137.19219,233.94539 H 472.03223 V 475.8273 H 120.56647 V 250.57111 a 16.625719,16.625719 135 0 1 16.62572,-16.62572 z"
       transform="matrix(0.79925313,0,0,1.1130317,-32.495032,-268.31922)" /><circle
       style="fill:#ffffff;stroke:none;stroke-width:16;stroke-linejoin:round;stroke-dasharray:none"
       id="path7"
       cx="110.95152"
       cy="318.20874"
       r="99.659851" /><path
       d="M 13.464659,84.089394 H 246.34016 a 12.928494,14.624399 0 0 1 9.21528,4.32294 13.11822,14.839013 0 0 1 3.82162,10.42411 V 286.9301 a 12.874286,14.563081 0 0 1 -3.82162,10.39345 3.6861113,4.16964 0 0 1 -0.6776,0.6745 12.657456,14.317808 0 0 1 -8.61899,3.64843 H 13.383347 A 13.036908,14.747035 0 0 1 0.34643891,286.9301 V 98.836444 A 12.928494,14.624399 0 0 1 4.1680699,88.412334 13.091116,14.808353 0 0 1 13.383347,84.089394 Z M 87.485025,0.3593516 H 320.36052 a 12.928494,14.624399 0 0 1 9.21528,4.322936 13.11822,14.839013 0 0 1 3.82164,10.4241004 V 203.20007 a 12.874286,14.563081 0 0 1 -3.82164,10.39344 2.9543098,3.3418438 0 0 1 -0.67759,0.6745 12.657456,14.317808 0 0 1 -8.72741,3.77107 h -14.58182 v -17.72097 h 12.22379 V 17.865709 H 89.951469 V 30.742537 H 74.366808 V 15.106388 A 12.928494,14.624399 0 0 1 78.188437,4.6822876 13.11822,14.839013 0 0 1 87.403715,0.3593516 Z M 50.488395,42.239707 H 283.36389 a 12.874286,14.563081 0 0 1 9.18817,4.322935 13.009804,14.716376 0 0 1 3.82163,10.393441 V 245.04976 a 12.928494,14.624399 0 0 1 -3.82163,10.42409 3.7945264,4.2922764 0 0 1 -0.67759,0.67449 12.657456,14.317808 0 0 1 -8.61899,3.64845 h -14.58183 v -17.59833 h 12.2238 V 59.746067 H 52.927732 v 12.87683 H 37.343071 V 56.956083 A 13.036908,14.747035 0 0 1 50.37998,42.239707 Z m 16.750123,93.019753 a 18.701595,21.154791 0 1 1 -18.67449,21.12413 18.67449,21.124132 0 0 1 18.67449,-21.12413 z m 78.600902,90.72032 37.4303,-73.21396 39.707,113.62267 H 37.668316 v -14.07253 l 15.557558,-0.88912 15.584662,-43.16802 7.77878,30.84307 h 23.363435 l 20.246509,-59.0188 25.69437,45.80472 z m 98.0614,-124.44535 H 15.931102 V 284.04814 H 243.90082 Z"
       id="path1"
       style="stroke-width:2.88267" /><path
       style="fill:#ffffff;fill-opacity:1;stroke-width:0.644;stroke-dasharray:none"
       id="rect1"
       width="351.46576"
       height="241.88191"
       x="120.56647"
       y="233.94539"
       inkscape:path-effect="#path-effect3"
       sodipodi:type="rect"
       d="M 137.19219,233.94539 H 472.03223 V 475.8273 H 120.56647 V 250.57111 a 16.625719,16.625719 135 0 1 16.62572,-16.62572 z"
       transform="matrix(1.1480508,0,0,1.1932477,-19.849963,-45.209401)" /><path
       fill="#000000"
       d="M 511.92288,498.9394 V 255.53709 c 0,-7.00555 -5.70218,-12.87067 -12.87067,-12.87067 H 140.30264 c -7.00556,0 -12.87067,5.70219 -12.87067,12.87067 v 243.56522 c 0,7.00557 5.70219,12.87067 12.87067,12.87067 h 358.91249 c 13.35944,-0.1629 12.70775,-13.03358 12.70775,-13.03358 z m -282.01432,0 h -89.60592 v -51.31976 h 89.76885 z m 0,-64.02752 h -89.60592 v -51.31977 h 89.76885 z m 0,-64.02751 h -89.60592 v -51.31976 h 89.76885 z m 0,-64.19044 h -89.60592 v -51.15684 h 89.76885 z m 89.44303,192.24547 h -76.57236 v -51.31976 h 76.89819 z m 0,-64.02752 h -76.57236 v -51.31977 h 76.89819 z m -76.57236,-64.02751 v -51.31976 h 76.57236 l 0.32583,51.31976 z m 76.89819,-64.19044 h -76.89819 v -51.15684 h 76.89819 z m 89.76887,192.24547 h -76.57237 l -0.81459,-51.31976 h 77.22402 v 51.31976 z m 0,-64.02752 h -76.57237 l -0.81459,-51.31977 h 77.22402 v 51.31977 z m 0,-64.02751 H 332.5481 l -0.32583,-51.31976 h 77.22402 z m 0,-64.19044 H 332.5481 l -0.32583,-51.31975 h 77.22402 z m 89.60592,192.24547 h -76.89818 l -0.32584,-51.31976 h 77.22402 z m 0,-64.02752 h -76.89818 l -0.32584,-51.31977 h 77.22402 z m 0,-64.02751 h -77.22402 v -51.31976 h 77.22402 z m 0,-64.19044 h -76.89818 l -0.32584,-51.31975 h 77.22402 z m -281.8514,89.76885 h -64.19042 v 25.57843 h 64.02752 z m 0,64.02752 h -64.19042 v 25.57843 h 64.02752 z m 0,-128.05502 h -64.19042 v 25.57841 h 64.02752 z m 0,-64.19043 h -64.19042 v 25.57842 h 64.02752 z"
       id="path1-3"
       style="stroke-width:1.6292"
       sodipodi:nodetypes="csssssscccccccccccccccccccccccccccccccccccccccccccccccccccccccccccccccccccccccccccccccccccccccccccccccccccccccc" /><g
       style="overflow:hidden;fill:#ffffff;stroke:none"
       id="g2"
       transform="matrix(0.30435255,-0.05584546,0.10063778,0.29219349,192.36811,142.74467)"><path
         d="M 949.2,63.44 C 915.504,31.04 878.32,14.608 838.624,14.608 c -62.064,0 -107.344,40.224 -119.728,52.56 -17.408,17.312 -612.064,614.32 -612.064,614.32 -3.888,3.92 -6.72,8.8 -8.176,14.176 C 85.232,745.392 10.826144,961.6783 10.154144,963.8863 6.6981443,975.1823 17.008,991.904 25.312,1000.224 c 5.984,5.952 13.936,9.168 22.08,9.168 3.2,0 6.432,-0.496 9.6,-1.52 2.288,-0.752 229.248,-74.384 266.608,-85.568 4.912,-1.472 9.424,-4.16 13.072,-7.792 23.6,-23.408 578.224,-573.824 615.04,-611.968 38.08,-39.392 56.992,-80.384 56.256,-121.872 -0.72,-40.96 -20.496,-80.4 -58.768,-117.232 z"
         id="path1-37-9"
         sodipodi:nodetypes="cscccccscccccc"
         style="fill:#ffffff;stroke:none" /></g><g
       style="overflow:hidden;fill:currentColor"
       id="g1"
       transform="matrix(0.28360964,-0.07363862,0.07363862,0.28360964,209.44223,136.94557)"><path
         d="m 922.62956,168.7498 c -30.717,-29.53558 -64.61364,-44.51487 -100.8002,-44.51487 -56.57706,0 -97.85395,36.66789 -109.1431,47.91329 -15.869,15.78148 -557.95271,560.00926 -557.95271,560.00926 -3.54427,3.57344 -6.1259,8.02201 -7.45318,12.92273 -12.23721,45.33165 -73.467029,246.50909 -74.079619,248.52188 -3.15046,10.29741 -0.35005,21.52821 7.21981,29.11261 5.45496,5.4258 12.703939,8.3575 20.127949,8.3575 2.9171,0 5.86335,-0.4521 8.75128,-1.3856 2.08573,-0.6855 208.98067,-67.80791 243.03775,-78.00316 4.47774,-1.34186 8.59085,-3.79222 11.91634,-7.10312 21.51357,-21.33855 527.10443,-523.09343 560.6656,-557.8652 34.71343,-35.90944 51.9535,-73.27742 51.2825,-111.09756 -0.6563,-37.33881 -18.68396,-73.292 -53.57242,-106.86776 z m -605.0492,620.65566 c -29.50641,-29.84188 -59.52332,-46.6881 -82.67047,-56.16866 99.54586,-99.93966 359.59027,-360.99047 468.8063,-470.57114 14.25001,3.42759 48.10289,14.73133 82.87466,49.94067 35.12182,35.5448 44.4857,76.09241 46.1922,85.09165 C 721.90428,508.40172 466.67307,761.82433 366.04789,861.70565 356.74236,839.98788 341.7339,813.83613 317.58036,789.40546 Z M 196.57927,781.0334 c 15.4606,4.1131 47.65074,16.04402 80.51181,49.2989 25.3058,25.61209 37.19296,53.77664 42.53125,70.97292 -39.20576,12.6456 -125.02668,42.3708 -179.56177,60.01922 16.17529,-53.36825 43.45013,-136.44711 56.51871,-180.29104 z M 884.00723,346.25501 c -1.15225,1.19601 -3.06295,3.1213 -5.33828,5.44039 -8.91173,-23.04505 -24.54736,-52.62439 -51.61799,-80.0305 -27.65406,-27.98952 -55.71651,-44.48569 -78.20731,-54.25796 1.91069,-1.9107 3.39841,-3.39842 3.98183,-3.98184 3.22339,-3.19421 32.51102,-31.28583 69.00388,-31.28583 21.01766,0 41.64152,9.61182 61.3465,28.57294 23.36593,22.4908 35.41353,44.68989 35.80734,65.97009 0.37922,21.74695 -11.37667,45.14205 -34.97597,69.57271 z"
         id="path1-37"
         style="stroke-width:0.911592" /></g><path
       style="fill:none;stroke:#000000;stroke-width:16;stroke-linejoin:round;stroke-dasharray:none"
       id="path4"
       sodipodi:type="arc"
       sodipodi:cx="318.24689"
       sodipodi:cy="-111.32688"
       sodipodi:rx="74.998634"
       sodipodi:ry="74.998634"
       sodipodi:start="0"
       sodipodi:end="1.5707963"
       sodipodi:open="true"
       sodipodi:arc-type="arc"
       transform="rotate(90)" /></g></svg>
